<?xml version="1.0" encoding="utf-8"?>
<!-- Generator: Adobe Illustrator 25.2.1, SVG Export Plug-In . SVG Version: 6.00 Build 0)  -->
<svg version="1.1" id="Layer_1" xmlns="http://www.w3.org/2000/svg" xmlns:xlink="http://www.w3.org/1999/xlink" x="0px" y="0px"
	 viewBox="0 0 256 256" style="enable-background:new 0 0 256 256;" xml:space="preserve">
<style type="text/css">
	.st0{display:none;}
	.st1{fill:#FFFFFF;}
	.st2{fill:none;stroke:#1890FF;stroke-width:17.92;stroke-linecap:round;stroke-linejoin:round;stroke-miterlimit:21.3333;}
	.st3{fill:none;stroke:#1890FF;stroke-width:5.3333;stroke-linecap:round;stroke-linejoin:round;stroke-miterlimit:21.3333;}
</style>
<g id="SVGRepo_bgCarrier" class="st0">
</g>
<circle class="st1" cx="128" cy="128" r="125.6"/>
<g id="SVGRepo_tracerCarrier">
	<path class="st2" d="M230.8,99.5c2.6,9.3,3.9,18.9,3.9,28.5l0,0c0,58.9-47.8,106.7-106.7,106.7c-58.9,0-106.7-47.8-106.7-106.7
		C21.3,69.1,69.1,21.3,128,21.3c21.6,0,42.6,6.5,60.4,18.7"/>
	<path class="st2" d="M74,129.1l38.9,39.3L232,45.3"/>
</g>
<g id="SVGRepo_iconCarrier">
	<path class="st3" d="M230.8,99.5c2.6,9.3,3.9,18.9,3.9,28.5l0,0c0,58.9-47.8,106.7-106.7,106.7c-58.9,0-106.7-47.8-106.7-106.7
		C21.3,69.1,69.1,21.3,128,21.3c21.6,0,42.6,6.5,60.4,18.7"/>
	<path class="st3" d="M74,129.1l38.9,39.3L232,45.3"/>
</g>
<g id="SVGRepo_tracerCarrier_1_">
	<path class="st2" d="M230.8,99.5c2.6,9.3,3.9,18.9,3.9,28.5l0,0c0,58.9-47.8,106.7-106.7,106.7c-58.9,0-106.7-47.8-106.7-106.7
		C21.3,69.1,69.1,21.3,128,21.3c21.6,0,42.6,6.5,60.4,18.7"/>
	<path class="st2" d="M74,129.1l38.9,39.3L232,45.3"/>
</g>
</svg>
